<svg width="1140.0025390624999px" height="121.40498046875px" xmlns="http://www.w3.org/2000/svg" viewBox="-320.00126953124993 14.297509765625001 1140.0025390624999 121.40498046875" style="background: rgb(231, 226, 221);" preserveAspectRatio="xMidYMid"><defs><filter id="editing-vintage" x="-100%" y="-100%" width="300%" height="300%"><feConvolveMatrix in="SourceGraphic" result="extrude" order="4,4" divisor="1" kernelMatrix="1,0,0,0,0,1,0,0,0,0,1,0,0,0,0,1"> </feConvolveMatrix><feFlood flood-color="#6d411b" result="flood-extrude"></feFlood><feComposite operator="in" in="flood-extrude" in2="extrude" result="extrude-color"></feComposite><feOffset dx="2" dy="2" in="extrude-color" result="extrude-offset"></feOffset><feColorMatrix in="SourceGraphic" result="stroke" type="matrix" values="0 0 0 0 0 0 0 0 0 0 0 0 0 0 0 0 1 0 0 0 "></feColorMatrix><feColorMatrix in="SourceGraphic" result="fill" type="matrix" values="0 0 0 0 0 0 0 0 0 0 0 0 0 0 0 1 0 0 1 0 "></feColorMatrix><feConvolveMatrix in="stroke" result="inner-shadow" order="5,5" divisor="1" kernelMatrix="1 0 0 0 0 0 1 0 0 0 0 0 1 0 0 0 0 0 1 0 0 0 0 0 1 "></feConvolveMatrix><feOffset dx="1" dy="1" in="inner-shadow" result="offset"></feOffset><feComposite operator="in" in="offset" in2="SourceAlpha" result="comp"></feComposite><feFlood flood-color="#dba435" result="flood3"></feFlood><feComposite operator="in" in="flood3" in2="comp" result="comp2"></feComposite><feColorMatrix in="comp2" result="comp3" type="matrix" values="1 0 0 0 0 0 1 0 0 0 0 0 1 0 0 0 0 0 0.5 0 "></feColorMatrix><feFlood flood-color="#dba372" result="flood1"></feFlood><feComposite operator="in" in="flood1" in2="fill" result="fill2"></feComposite><feFlood flood-color="#fff" result="flood2"></feFlood><feComposite operator="in" in="flood2" in2="stroke" result="stroke2"></feComposite><feMerge result="obj"><feMergeNode in="extrude-offset"></feMergeNode><feMergeNode in="fill2"></feMergeNode><feMergeNode in="comp3"></feMergeNode></feMerge><feConvolveMatrix in="SourceAlpha" result="shadow" order="4,4" divisor="1" kernelMatrix="1,0,0,0,0,1,0,0,0,0,1,0,0,0,0,1"></feConvolveMatrix><feOffset dx="6" dy="6" in="shadow" result="shadow-offset"></feOffset><feFlood flood-color="#c5bea4" result="flood-shadow"></feFlood><feComposite operator="in" in="flood-shadow" in2="shadow-offset" result="shadow-color"></feComposite><feMerge><feMergeNode in="shadow-color"></feMergeNode><feMergeNode in="obj"></feMergeNode></feMerge></filter></defs><g transform="translate(-4,-4)"><g filter="url(#editing-vintage)"><g transform="translate(-161.42000856995583, 104.79000091552734)"><path d="M30.21-33.92L30.21-33.92L30.21-33.92Q25.02-33.92 21.25-35.65L21.25-35.65L19.20-25.28L31.55-25.28L31.55-25.28Q31.55-21.89 29.86-19.74L29.86-19.74L29.86-19.74Q28.16-17.60 25.09-17.60L25.09-17.60L25.09-17.60Q21.76-17.60 18.69-18.82L18.69-18.82L18.69-18.82Q18.05-19.07 17.98-19.14L17.98-19.14L14.34 0L0.38 0L8.51-42.24L37.06-42.24L37.06-42.24Q37.06-38.34 35.23-36.13L35.23-36.13L35.23-36.13Q33.41-33.92 30.21-33.92ZM54.98-17.98L54.98-17.98L54.98-17.98Q57.28-22.08 57.28-26.24L57.28-26.24L57.28-26.24Q57.28-28.99 55.30-28.99L55.30-28.99L55.30-28.99Q53.76-28.99 52.16-26.37L52.16-26.37L52.16-26.37Q50.50-23.74 49.98-20.35L49.98-20.35L46.66 0L33.41 1.28L39.94-32.64L50.50-33.92L49.34-27.46L49.34-27.46Q52.48-33.92 59.52-33.92L59.52-33.92L59.52-33.92Q63.23-33.92 65.25-32L65.25-32L65.25-32Q67.26-30.08 67.26-26.14L67.26-26.14L67.26-26.14Q67.26-22.21 64.67-19.71L64.67-19.71L64.67-19.71Q62.08-17.22 57.66-17.22L57.66-17.22L57.66-17.22Q55.74-17.22 54.98-17.98ZM71.07-1.92L71.07-1.92L71.07-1.92Q69.57-3.58 68.90-6.21L68.90-6.21L68.90-6.21Q68.22-8.83 68.22-13.12L68.22-13.12L68.22-13.12Q68.22-17.41 69.70-21.31L69.70-21.31L69.70-21.31Q71.17-25.22 73.86-28.03L73.86-28.03L73.86-28.03Q79.36-33.92 88.45-33.92L88.45-33.92L88.45-33.92Q91.71-33.92 94.08-32.83L94.08-32.83L105.02-33.92L100.29-8.96L100.29-8.96Q100.10-8.19 100.10-6.78L100.10-6.78L100.10-6.78Q100.10-5.38 100.96-4.48L100.96-4.48L100.96-4.48Q101.82-3.58 103.10-3.46L103.10-3.46L103.10-3.46Q102.46-1.28 100.13 0L100.13 0L100.13 0Q97.79 1.28 95.17 1.28L95.17 1.28L95.17 1.28Q92.54 1.28 90.78 0.29L90.78 0.29L90.78 0.29Q89.02-0.70 88.51-2.37L88.51-2.37L88.51-2.37Q87.49-0.77 85.31 0.26L85.31 0.26L85.31 0.26Q83.14 1.28 80.22 1.28L80.22 1.28L80.22 1.28Q77.31 1.28 74.94 0.51L74.94 0.51L74.94 0.51Q72.58-0.26 71.07-1.92ZM84.58-27.90L84.58-27.90L84.58-27.90Q83.84-26.75 83.20-24.80L83.20-24.80L83.20-24.80Q82.56-22.85 81.50-17.63L81.50-17.63L81.50-17.63Q80.45-12.42 80.45-8.70L80.45-8.70L80.45-8.70Q80.45-4.99 81.02-3.90L81.02-3.90L81.02-3.90Q81.60-2.82 82.62-2.82L82.62-2.82L82.62-2.82Q84.67-2.82 86.18-4.77L86.18-4.77L86.18-4.77Q87.68-6.72 88.26-10.18L88.26-10.18L91.65-28.93L91.65-28.93Q90.30-30.08 88.74-30.08L88.74-30.08L88.74-30.08Q87.17-30.08 86.24-29.57L86.24-29.57L86.24-29.57Q85.31-29.06 84.58-27.90ZM135.55 1.28L135.55 1.28L135.55 1.28Q127.81 1.28 127.81-4.74L127.81-4.74L127.81-4.74Q127.87-6.40 128.38-9.22L128.38-9.22L129.54-15.10L129.54-15.10Q131.26-23.42 131.26-25.28L131.26-25.28L131.26-25.28Q131.26-28.99 129.09-28.99L129.09-28.99L129.09-28.99Q125.44-28.99 123.52-19.46L123.52-19.46L119.74 0L106.88 1.28L113.54-32.70L124.03-33.92L123.01-27.65L123.01-27.65Q126.02-33.92 135.23-33.92L135.23-33.92L135.23-33.92Q139.71-33.92 141.60-32.03L141.60-32.03L141.60-32.03Q143.49-30.14 143.49-25.92L143.49-25.92L143.49-25.92Q143.49-21.95 141.44-12.67L141.44-12.67L141.44-12.67Q140.48-8.51 140.48-6.94L140.48-6.94L140.48-6.94Q140.48-5.38 141.34-4.48L141.34-4.48L141.34-4.48Q142.21-3.58 143.49-3.46L143.49-3.46L143.49-3.46Q142.85-1.28 140.64 0L140.64 0L140.64 0Q138.43 1.28 135.55 1.28ZM165.12-30.34L165.12-30.34L165.12-30.34Q168.58-33.92 175.87-33.92L175.87-33.92L175.87-33.92Q179.90-33.92 182.11-31.78L182.11-31.78L182.11-31.78Q184.32-29.63 184.32-25.70L184.32-25.70L184.32-25.70Q184.32-21.76 182.11-18.98L182.11-18.98L182.11-18.98Q179.90-16.19 175.81-15.04L175.81-15.04L175.81-15.04Q176.13-13.76 176.58-12.42L176.58-12.42L177.47-9.86L177.47-9.86Q178.69-6.59 179.65-5.44L179.65-5.44L179.65-5.44Q180.61-4.29 181.89-3.90L181.89-3.90L181.89-3.90Q181.18-1.28 178.62 0.13L178.62 0.13L178.62 0.13Q176.58 1.28 173.76 1.28L173.76 1.28L173.76 1.28Q165.50 1.28 164.42-11.46L164.42-11.46L164.42-11.46Q164.22-13.25 164.22-15.04L164.22-15.04L164.22-15.04Q167.42-15.94 169.66-18.94L169.66-18.94L169.66-18.94Q171.90-21.95 171.90-25.47L171.90-25.47L171.90-25.47Q171.90-28.99 169.41-28.99L169.41-28.99L169.41-28.99Q167.62-28.99 166.21-27.01L166.21-27.01L166.21-27.01Q164.80-25.02 164.16-21.63L164.16-21.63L159.94 0L147.01 1.28L155.97-44.80L168.83-46.08L167.36-38.46L167.36-38.46Q166.40-33.09 165.12-30.34ZM202.56-3.52L202.56-3.52L202.56-3.52Q200.58 1.28 194.24 1.28L194.24 1.28L194.24 1.28Q191.04 1.28 188.99-0.96L188.99-0.96L188.99-0.96Q187.33-2.82 187.33-4.93L187.33-4.93L187.33-4.93Q187.33-9.73 189.57-20.22L189.57-20.22L194.24-44.80L207.23-46.08L201.02-13.70L201.02-13.70Q199.94-8.96 199.94-7.30L199.94-7.30L199.94-7.30Q199.94-3.65 202.56-3.52ZM228.35-7.23L228.35-7.23L228.35-7.23Q225.02-3.78 218.94-3.78L218.94-3.78L218.94-3.78Q211.33-3.78 209.73-9.34L209.73-9.34L209.73-9.34Q209.22-11.01 209.22-12.86L209.22-12.86L209.22-12.86Q209.22-14.72 209.60-16.64L209.60-16.64L212.61-32.64L225.60-33.92L222.08-15.30L222.08-15.30Q221.95-14.46 221.76-13.57L221.76-13.57L221.76-13.57Q221.57-12.67 221.57-11.74L221.57-11.74L221.57-11.74Q221.57-10.82 221.89-10.21L221.89-10.21L221.89-10.21Q222.21-9.60 222.66-9.22L222.66-9.22L222.66-9.22Q223.42-8.70 224.80-8.70L224.80-8.70L224.80-8.70Q226.18-8.70 227.36-10.37L227.36-10.37L227.36-10.37Q228.54-12.03 229.12-14.91L229.12-14.91L232.64-32.64L245.25-33.92L240.45-8.77L240.45-8.77Q238.08 3.52 233.22 8.38L233.22 8.38L233.22 8.38Q230.72 10.88 227.49 11.87L227.49 11.87L227.49 11.87Q224.26 12.86 220.10 12.86L220.10 12.86L220.10 12.86Q213.38 12.86 209.54 10.75L209.54 10.75L209.54 10.75Q205.70 8.64 205.70 5.12L205.70 5.12L205.70 5.12Q205.70 2.50 207.68 0.99L207.68 0.99L207.68 0.99Q209.66-0.51 212.74-0.51L212.74-0.51L212.74-0.51Q215.42-0.51 217.47 0.64L217.47 0.64L217.47 0.64Q218.69 1.34 219.26 2.24L219.26 2.24L219.26 2.24Q217.79 3.52 217.79 5.63L217.79 5.63L217.79 5.63Q217.79 8.45 220.35 8.45L220.35 8.45L220.35 8.45Q224.58 8.45 227.01-1.28L227.01-1.28L227.01-1.28Q227.71-4.16 228.35-7.23ZM274.62 1.28L274.62 1.28L274.62 1.28Q266.88 1.28 266.88-4.74L266.88-4.74L266.88-4.74Q266.94-6.40 267.46-9.22L267.46-9.22L268.61-15.10L268.61-15.10Q270.34-23.42 270.34-25.28L270.34-25.28L270.34-25.28Q270.34-28.99 268.16-28.99L268.16-28.99L268.16-28.99Q264.51-28.99 262.59-19.46L262.59-19.46L258.82 0L245.95 1.28L252.61-32.70L263.10-33.92L262.08-27.65L262.08-27.65Q265.09-33.92 274.30-33.92L274.30-33.92L274.30-33.92Q278.78-33.92 280.67-32.03L280.67-32.03L280.67-32.03Q282.56-30.14 282.56-25.92L282.56-25.92L282.56-25.92Q282.56-21.95 280.51-12.67L280.51-12.67L280.51-12.67Q279.55-8.51 279.55-6.94L279.55-6.94L279.55-6.94Q279.55-5.38 280.42-4.48L280.42-4.48L280.42-4.48Q281.28-3.58 282.56-3.46L282.56-3.46L282.56-3.46Q281.92-1.28 279.71 0L279.71 0L279.71 0Q277.50 1.28 274.62 1.28ZM296.96-29.50L290.18-29.50L290.18-29.50Q292.54-37.70 292.67-46.34L292.67-46.34L294.53-46.59L294.53-46.59Q295.49-46.72 296.19-46.72L296.19-46.72L296.19-46.72Q299.01-46.72 300.54-45.34L300.54-45.34L300.54-45.34Q302.08-43.97 302.08-41.54L302.08-41.54L302.08-41.54Q302.08-38.98 300.93-36.16L300.93-36.16L300.93-36.16Q298.88-31.17 296.96-29.50L296.96-29.50ZM320.45-22.46L320.45-22.46L320.45-22.46Q321.34-24.83 321.34-26.88L321.34-26.88L321.34-26.88Q321.34-30.66 318.27-30.66L318.27-30.66L318.27-30.66Q316.67-30.66 315.36-29.22L315.36-29.22L315.36-29.22Q314.05-27.78 314.05-25.98L314.05-25.98L314.05-25.98Q314.05-24.70 315.07-23.68L315.07-23.68L315.07-23.68Q316.54-22.27 320.32-19.97L320.32-19.97L320.32-19.97Q324.10-17.66 325.54-15.78L325.54-15.78L325.54-15.78Q326.98-13.89 326.98-11.30L326.98-11.30L326.98-11.30Q326.98-8.70 325.73-6.34L325.73-6.34L325.73-6.34Q324.48-3.97 322.24-2.30L322.24-2.30L322.24-2.30Q317.44 1.28 309.76 1.28L309.76 1.28L309.76 1.28Q305.60 1.28 302.40-0.90L302.40-0.90L302.40-0.90Q299.20-3.01 299.20-5.50L299.20-5.50L299.20-5.50Q299.20-8 301.02-9.47L301.02-9.47L301.02-9.47Q302.85-10.94 305.54-10.94L305.54-10.94L305.54-10.94Q308.22-10.94 309.89-9.92L309.89-9.92L309.89-9.92Q309.06-7.81 309.06-6.40L309.06-6.40L309.06-6.40Q309.06-2.18 312.64-2.18L312.64-2.18L312.64-2.18Q314.18-2.18 315.20-3.14L315.20-3.14L315.20-3.14Q316.22-4.10 316.22-5.76L316.22-5.76L316.22-5.76Q316.22-9.02 310.72-12.48L310.72-12.48L310.72-12.48Q306.24-15.42 305.22-16.58L305.22-16.58L305.22-16.58Q303.49-18.62 303.49-21.18L303.49-21.18L303.49-21.18Q303.49-23.74 304.70-26.18L304.70-26.18L304.70-26.18Q305.92-28.61 308.16-30.34L308.16-30.34L308.16-30.34Q312.83-33.92 320.96-33.92L320.96-33.92L320.96-33.92Q325.12-33.92 327.58-32.26L327.58-32.26L327.58-32.26Q330.05-30.59 330.05-27.78L330.05-27.78L330.05-27.78Q330.05-24.96 328.35-23.36L328.35-23.36L328.35-23.36Q326.66-21.76 323.58-21.76L323.58-21.76L323.58-21.76Q321.47-21.76 320.45-22.46ZM374.72-33.92L374.72-33.92L374.72-33.92Q369.54-33.92 365.76-35.65L365.76-35.65L363.71-25.28L376.06-25.28L376.06-25.28Q376.06-21.89 374.37-19.74L374.37-19.74L374.37-19.74Q372.67-17.60 369.60-17.60L369.60-17.60L369.60-17.60Q366.27-17.60 363.20-18.82L363.20-18.82L363.20-18.82Q362.56-19.07 362.50-19.14L362.50-19.14L358.85 0L344.90 0L353.02-42.24L381.57-42.24L381.57-42.24Q381.57-38.34 379.74-36.13L379.74-36.13L379.74-36.13Q377.92-33.92 374.72-33.92ZM400.13-2.69L400.13-2.69L400.13-2.69Q397.06 1.28 389.44 1.28L389.44 1.28L389.44 1.28Q385.47 1.28 382.59-1.12L382.59-1.12L382.59-1.12Q379.71-3.52 379.71-6.98L379.71-6.98L379.71-6.98Q379.71-8.90 379.90-9.86L379.90-9.86L384.19-32.64L397.18-33.92L392.51-9.22L392.51-9.22Q392.26-7.81 392.26-6.98L392.26-6.98L392.26-6.98Q392.26-3.26 394.50-3.26L394.50-3.26L394.50-3.26Q396.99-3.26 398.78-6.66L398.78-6.66L398.78-6.66Q399.36-7.74 399.62-9.15L399.62-9.15L404.16-32.64L416.77-33.92L412.03-8.96L412.03-8.96Q411.84-8 411.84-6.98L411.84-6.98L411.84-6.98Q411.84-5.95 412.42-4.83L412.42-4.83L412.42-4.83Q412.99-3.71 414.85-3.46L414.85-3.46L414.85-3.46Q414.46-1.92 413.12-0.90L413.12-0.90L413.12-0.90Q410.30 1.28 407.26 1.28L407.26 1.28L407.26 1.28Q404.22 1.28 402.43 0.19L402.43 0.19L402.43 0.19Q400.64-0.90 400.13-2.69ZM440.26-17.98L440.26-17.98L440.26-17.98Q442.56-22.08 442.56-26.24L442.56-26.24L442.56-26.24Q442.56-28.99 440.58-28.99L440.58-28.99L440.58-28.99Q439.04-28.99 437.44-26.37L437.44-26.37L437.44-26.37Q435.78-23.74 435.26-20.35L435.26-20.35L431.94 0L418.69 1.28L425.22-32.64L435.78-33.92L434.62-27.46L434.62-27.46Q437.76-33.92 444.80-33.92L444.80-33.92L444.80-33.92Q448.51-33.92 450.53-32L450.53-32L450.53-32Q452.54-30.08 452.54-26.14L452.54-26.14L452.54-26.14Q452.54-22.21 449.95-19.71L449.95-19.71L449.95-19.71Q447.36-17.22 442.94-17.22L442.94-17.22L442.94-17.22Q441.02-17.22 440.26-17.98ZM480.64 1.28L480.64 1.28L480.64 1.28Q472.90 1.28 472.90-4.74L472.90-4.74L472.90-4.74Q472.96-6.40 473.47-9.22L473.47-9.22L474.62-15.10L474.62-15.10Q476.35-23.42 476.35-25.28L476.35-25.28L476.35-25.28Q476.35-28.99 474.18-28.99L474.18-28.99L474.18-28.99Q470.53-28.99 468.61-19.46L468.61-19.46L464.83 0L451.97 1.28L458.62-32.70L469.12-33.92L468.10-27.65L468.10-27.65Q471.10-33.92 480.32-33.92L480.32-33.92L480.32-33.92Q484.80-33.92 486.69-32.03L486.69-32.03L486.69-32.03Q488.58-30.14 488.58-25.92L488.58-25.92L488.58-25.92Q488.58-21.95 486.53-12.67L486.53-12.67L486.53-12.67Q485.57-8.51 485.57-6.94L485.57-6.94L485.57-6.94Q485.57-5.38 486.43-4.48L486.43-4.48L486.43-4.48Q487.30-3.58 488.58-3.46L488.58-3.46L488.58-3.46Q487.94-1.28 485.73 0L485.73 0L485.73 0Q483.52 1.28 480.64 1.28ZM509.06-3.52L509.06-3.52L509.06-3.52Q507.07 1.28 500.74 1.28L500.74 1.28L500.74 1.28Q497.47 1.28 495.42-0.96L495.42-0.96L495.42-0.96Q493.70-2.94 493.70-4.93L493.70-4.93L493.70-4.93Q493.70-10.11 496.06-20.22L496.06-20.22L498.43-32.64L511.42-33.92L507.52-13.70L507.52-13.70Q506.43-8.96 506.43-7.30L506.43-7.30L506.43-7.30Q506.43-3.65 509.06-3.52ZM499.58-41.54L499.58-41.54L499.58-41.54Q499.58-44.03 501.66-45.38L501.66-45.38L501.66-45.38Q503.74-46.72 506.75-46.72L506.75-46.72L506.75-46.72Q509.76-46.72 511.58-45.38L511.58-45.38L511.58-45.38Q513.41-44.03 513.41-41.54L513.41-41.54L513.41-41.54Q513.41-39.04 511.39-37.76L511.39-37.76L511.39-37.76Q509.38-36.48 506.37-36.48L506.37-36.48L506.37-36.48Q503.36-36.48 501.47-37.76L501.47-37.76L501.47-37.76Q499.58-39.04 499.58-41.54ZM515.52-6.40L515.52-6.40L515.52-6.40Q515.52-8.13 516.42-12.48L516.42-12.48L519.81-29.76L516.03-29.76L516.29-31.68L516.29-31.68Q523.97-33.98 531.39-39.62L531.39-39.62L534.46-39.62L532.93-32.64L537.92-32.64L537.34-29.76L532.42-29.76L529.15-12.48L529.15-12.48Q528.32-8.51 528.32-7.17L528.32-7.17L528.32-7.17Q528.32-4.10 531.01-3.46L531.01-3.46L531.01-3.46Q530.37-1.28 528.06 0L528.06 0L528.06 0Q525.76 1.28 522.50 1.28L522.50 1.28L522.50 1.28Q519.23 1.28 517.38-0.77L517.38-0.77L517.38-0.77Q515.52-2.82 515.52-6.40ZM558.14-2.69L558.14-2.69L558.14-2.69Q555.07 1.28 547.46 1.28L547.46 1.28L547.46 1.28Q543.49 1.28 540.61-1.12L540.61-1.12L540.61-1.12Q537.73-3.52 537.73-6.98L537.73-6.98L537.73-6.98Q537.73-8.90 537.92-9.86L537.92-9.86L542.21-32.64L555.20-33.92L550.53-9.22L550.53-9.22Q550.27-7.81 550.27-6.98L550.27-6.98L550.27-6.98Q550.27-3.26 552.51-3.26L552.51-3.26L552.51-3.26Q555.01-3.26 556.80-6.66L556.80-6.66L556.80-6.66Q557.38-7.74 557.63-9.15L557.63-9.15L562.18-32.64L574.78-33.92L570.05-8.96L570.05-8.96Q569.86-8 569.86-6.98L569.86-6.98L569.86-6.98Q569.86-5.95 570.43-4.83L570.43-4.83L570.43-4.83Q571.01-3.71 572.86-3.46L572.86-3.46L572.86-3.46Q572.48-1.92 571.14-0.90L571.14-0.90L571.14-0.90Q568.32 1.28 565.28 1.28L565.28 1.28L565.28 1.28Q562.24 1.28 560.45 0.19L560.45 0.19L560.45 0.19Q558.66-0.90 558.14-2.69ZM598.27-17.98L598.27-17.98L598.27-17.98Q600.58-22.08 600.58-26.24L600.58-26.24L600.58-26.24Q600.58-28.99 598.59-28.99L598.59-28.99L598.59-28.99Q597.06-28.99 595.46-26.37L595.46-26.37L595.46-26.37Q593.79-23.74 593.28-20.35L593.28-20.35L589.95 0L576.70 1.28L583.23-32.64L593.79-33.92L592.64-27.46L592.64-27.46Q595.78-33.92 602.82-33.92L602.82-33.92L602.82-33.92Q606.53-33.92 608.54-32L608.54-32L608.54-32Q610.56-30.08 610.56-26.14L610.56-26.14L610.56-26.14Q610.56-22.21 607.97-19.71L607.97-19.71L607.97-19.71Q605.38-17.22 600.96-17.22L600.96-17.22L600.96-17.22Q599.04-17.22 598.27-17.98ZM637.50-10.82L637.50-10.82L637.50-10.82Q639.10-9.73 639.10-7.33L639.10-7.33L639.10-7.33Q639.10-4.93 637.89-3.39L637.89-3.39L637.89-3.39Q636.67-1.86 634.69-0.83L634.69-0.83L634.69-0.83Q630.59 1.28 626.18 1.28L626.18 1.28L626.18 1.28Q621.76 1.28 619.17 0.32L619.17 0.32L619.17 0.32Q616.58-0.64 614.85-2.43L614.85-2.43L614.85-2.43Q611.46-5.82 611.46-12.03L611.46-12.03L611.46-12.03Q611.46-21.70 616.70-27.58L616.70-27.58L616.70-27.58Q622.34-33.92 632.13-33.92L632.13-33.92L632.13-33.92Q638.21-33.92 641.22-31.36L641.22-31.36L641.22-31.36Q643.46-29.44 643.46-26.30L643.46-26.30L643.46-26.30Q643.46-15.04 624-15.04L624-15.04L624-15.04Q623.74-13.38 623.74-11.97L623.74-11.97L623.74-11.97Q623.74-9.02 625.06-7.90L625.06-7.90L625.06-7.90Q626.37-6.78 628.80-6.78L628.80-6.78L628.80-6.78Q631.23-6.78 633.82-7.90L633.82-7.90L633.82-7.90Q636.42-9.02 637.50-10.82ZM624.45-17.79L624.45-17.79L624.45-17.79Q628.99-17.79 631.62-20.61L631.62-20.61L631.62-20.61Q634.24-23.30 634.24-27.58L634.24-27.58L634.24-27.58Q634.24-29.06 633.70-29.86L633.70-29.86L633.70-29.86Q633.15-30.66 632.06-30.66L632.06-30.66L632.06-30.66Q630.98-30.66 630.05-30.24L630.05-30.24L630.05-30.24Q629.12-29.82 628.16-28.42L628.16-28.42L628.16-28.42Q625.79-25.22 624.45-17.79ZM683.78-29.57L683.78-29.57L683.78-29.57Q684.74-31.49 684.74-33.28L684.74-33.28L684.74-33.28Q684.74-35.07 684.54-36.06L684.54-36.06L684.54-36.06Q684.35-37.06 683.90-37.82L683.90-37.82L683.90-37.82Q682.94-39.49 681.02-39.49L681.02-39.49L681.02-39.49Q678.66-39.49 676.74-37.76L676.74-37.76L676.74-37.76Q674.69-35.97 674.69-33.15L674.69-33.15L674.69-33.15Q674.69-31.36 675.94-29.98L675.94-29.98L675.94-29.98Q677.18-28.61 679.10-27.33L679.10-27.33L679.10-27.33Q681.02-26.05 683.20-24.77L683.20-24.77L683.20-24.77Q685.38-23.49 687.30-21.95L687.30-21.95L687.30-21.95Q691.71-18.43 691.71-13.70L691.71-13.70L691.71-13.70Q691.71-10.50 690.02-7.78L690.02-7.78L690.02-7.78Q688.32-5.06 685.50-3.07L685.50-3.07L685.50-3.07Q679.36 1.28 671.23 1.28L671.23 1.28L671.23 1.28Q664.64 1.28 661.25-0.86L661.25-0.86L661.25-0.86Q657.86-3.01 657.86-6.27L657.86-6.27L657.86-6.27Q657.86-12.10 662.40-13.57L662.40-13.57L662.40-13.57Q663.68-14.02 665.63-14.02L665.63-14.02L665.63-14.02Q667.58-14.02 669.82-13.18L669.82-13.18L669.82-13.18Q668.80-10.56 668.80-8.19L668.80-8.19L668.80-8.19Q668.80-3.07 672.45-3.07L672.45-3.07L672.45-3.07Q674.82-3.07 676.77-4.80L676.77-4.80L676.77-4.80Q678.72-6.53 678.72-8.48L678.72-8.48L678.72-8.48Q678.72-10.43 677.47-11.84L677.47-11.84L677.47-11.84Q676.22-13.25 674.37-14.37L674.37-14.37L674.37-14.37Q672.51-15.49 670.37-16.58L670.37-16.58L670.37-16.58Q668.22-17.66 666.37-19.20L666.37-19.20L666.37-19.20Q662.02-22.72 662.02-28.35L662.02-28.35L662.02-28.35Q662.02-32 663.81-34.85L663.81-34.85L663.81-34.85Q665.60-37.70 668.48-39.62L668.48-39.62L668.48-39.62Q674.24-43.52 681.31-43.52L681.31-43.52L681.31-43.52Q688.38-43.52 691.81-41.41L691.81-41.41L691.81-41.41Q695.23-39.30 695.23-35.71L695.23-35.71L695.23-35.71Q695.23-32.58 692.80-30.59L692.80-30.59L692.80-30.59Q690.69-28.93 688.13-28.93L688.13-28.93L688.13-28.93Q685.57-28.93 683.78-29.57ZM697.60-6.40L697.60-6.40L697.60-6.40Q697.60-8.13 698.50-12.48L698.50-12.48L701.89-29.76L698.11-29.76L698.37-31.68L698.37-31.68Q706.05-33.98 713.47-39.62L713.47-39.62L716.54-39.62L715.01-32.64L720-32.64L719.42-29.76L714.50-29.76L711.23-12.48L711.23-12.48Q710.40-8.51 710.40-7.17L710.40-7.17L710.40-7.17Q710.40-4.10 713.09-3.46L713.09-3.46L713.09-3.46Q712.45-1.28 710.14 0L710.14 0L710.14 0Q707.84 1.28 704.58 1.28L704.58 1.28L704.58 1.28Q701.31 1.28 699.46-0.77L699.46-0.77L699.46-0.77Q697.60-2.82 697.60-6.40ZM733.38 1.28L733.38 1.28L733.38 1.28Q719.30 1.28 719.30-11.97L719.30-11.97L719.30-11.97Q719.30-21.38 724.48-27.46L724.48-27.46L724.48-27.46Q729.98-33.92 739.52-33.92L739.52-33.92L739.52-33.92Q746.43-33.92 749.95-30.72L749.95-30.72L749.95-30.72Q753.47-27.52 753.47-20.80L753.47-20.80L753.47-20.80Q753.47-10.56 747.97-4.61L747.97-4.61L747.97-4.61Q742.59 1.28 733.38 1.28ZM735.04-26.56L735.04-26.56L735.04-26.56Q734.27-24.83 733.66-22.24L733.66-22.24L733.66-22.24Q733.06-19.65 732.29-15.55L732.29-15.55L732.29-15.55Q731.52-11.46 731.52-6.40L731.52-6.40L731.52-6.40Q731.52-4.74 732.06-3.65L732.06-3.65L732.06-3.65Q732.61-2.56 734.08-2.56L734.08-2.56L734.08-2.56Q735.55-2.56 736.48-3.26L736.48-3.26L736.48-3.26Q737.41-3.97 738.11-5.63L738.11-5.63L738.11-5.63Q739.39-8.58 740.42-14.05L740.42-14.05L740.42-14.05Q741.44-19.52 741.54-21.89L741.54-21.89L741.54-21.89Q741.63-24.26 741.63-26.02L741.63-26.02L741.63-26.02Q741.63-27.78 741.12-28.93L741.12-28.93L741.12-28.93Q740.61-30.08 739.17-30.08L739.17-30.08L739.17-30.08Q737.73-30.08 736.77-29.18L736.77-29.18L736.77-29.18Q735.81-28.29 735.04-26.56ZM777.28-17.98L777.28-17.98L777.28-17.98Q779.58-22.08 779.58-26.24L779.58-26.24L779.58-26.24Q779.58-28.99 777.60-28.99L777.60-28.99L777.60-28.99Q776.06-28.99 774.46-26.37L774.46-26.37L774.46-26.37Q772.80-23.74 772.29-20.35L772.29-20.35L768.96 0L755.71 1.28L762.24-32.64L772.80-33.92L771.65-27.46L771.65-27.46Q774.78-33.92 781.82-33.92L781.82-33.92L781.82-33.92Q785.54-33.92 787.55-32L787.55-32L787.55-32Q789.57-30.08 789.57-26.14L789.57-26.14L789.57-26.14Q789.57-22.21 786.98-19.71L786.98-19.71L786.98-19.71Q784.38-17.22 779.97-17.22L779.97-17.22L779.97-17.22Q778.05-17.22 777.28-17.98ZM816.51-10.82L816.51-10.82L816.51-10.82Q818.11-9.73 818.11-7.33L818.11-7.33L818.11-7.33Q818.11-4.93 816.90-3.39L816.90-3.39L816.90-3.39Q815.68-1.86 813.70-0.83L813.70-0.83L813.70-0.83Q809.60 1.28 805.18 1.28L805.18 1.28L805.18 1.28Q800.77 1.28 798.18 0.32L798.18 0.32L798.18 0.32Q795.58-0.64 793.86-2.43L793.86-2.43L793.86-2.43Q790.46-5.82 790.46-12.03L790.46-12.03L790.46-12.03Q790.46-21.70 795.71-27.58L795.71-27.58L795.71-27.58Q801.34-33.92 811.14-33.92L811.14-33.92L811.14-33.92Q817.22-33.92 820.22-31.36L820.22-31.36L820.22-31.36Q822.46-29.44 822.46-26.30L822.46-26.30L822.46-26.30Q822.46-15.04 803.01-15.04L803.01-15.04L803.01-15.04Q802.75-13.38 802.75-11.97L802.75-11.97L802.75-11.97Q802.75-9.02 804.06-7.90L804.06-7.90L804.06-7.90Q805.38-6.78 807.81-6.78L807.81-6.78L807.81-6.78Q810.24-6.78 812.83-7.90L812.83-7.90L812.83-7.90Q815.42-9.02 816.51-10.82ZM803.46-17.79L803.46-17.79L803.46-17.79Q808-17.79 810.62-20.61L810.62-20.61L810.62-20.61Q813.25-23.30 813.25-27.58L813.25-27.58L813.25-27.58Q813.25-29.06 812.70-29.86L812.70-29.86L812.70-29.86Q812.16-30.66 811.07-30.66L811.07-30.66L811.07-30.66Q809.98-30.66 809.06-30.24L809.06-30.24L809.06-30.24Q808.13-29.82 807.17-28.42L807.17-28.42L807.17-28.42Q804.80-25.22 803.46-17.79Z" fill="#f00" stroke="#0f0" stroke-width="1.8"></path></g></g><g><g transform="translate(-161.42000856995583, 104.79000091552734)"><path d="M30.21-33.92L30.21-33.92L30.21-33.92Q25.02-33.92 21.25-35.65L21.25-35.65L19.20-25.28L31.55-25.28L31.55-25.28Q31.55-21.89 29.86-19.74L29.86-19.74L29.86-19.74Q28.16-17.60 25.09-17.60L25.09-17.60L25.09-17.60Q21.76-17.60 18.69-18.82L18.69-18.82L18.69-18.82Q18.05-19.07 17.98-19.14L17.98-19.14L14.34 0L0.38 0L8.51-42.24L37.06-42.24L37.06-42.24Q37.06-38.34 35.23-36.13L35.23-36.13L35.23-36.13Q33.41-33.92 30.21-33.92ZM54.98-17.98L54.98-17.98L54.98-17.98Q57.28-22.08 57.28-26.24L57.28-26.24L57.28-26.24Q57.28-28.99 55.30-28.99L55.30-28.99L55.30-28.99Q53.76-28.99 52.16-26.37L52.16-26.37L52.16-26.37Q50.50-23.74 49.98-20.35L49.98-20.35L46.66 0L33.41 1.28L39.94-32.64L50.50-33.92L49.34-27.46L49.34-27.46Q52.48-33.92 59.52-33.92L59.52-33.92L59.52-33.92Q63.23-33.92 65.25-32L65.25-32L65.25-32Q67.26-30.08 67.26-26.14L67.26-26.14L67.26-26.14Q67.26-22.21 64.67-19.71L64.67-19.71L64.67-19.71Q62.08-17.22 57.66-17.22L57.66-17.22L57.66-17.22Q55.74-17.22 54.98-17.98ZM71.07-1.92L71.07-1.92L71.07-1.92Q69.57-3.58 68.90-6.21L68.90-6.21L68.90-6.21Q68.22-8.83 68.22-13.12L68.22-13.12L68.22-13.12Q68.22-17.41 69.70-21.31L69.70-21.31L69.70-21.31Q71.17-25.22 73.86-28.03L73.86-28.03L73.86-28.03Q79.36-33.92 88.45-33.92L88.45-33.92L88.45-33.92Q91.71-33.92 94.08-32.83L94.08-32.83L105.02-33.92L100.29-8.96L100.29-8.96Q100.10-8.19 100.10-6.78L100.10-6.78L100.10-6.78Q100.10-5.38 100.96-4.48L100.96-4.48L100.96-4.48Q101.82-3.58 103.10-3.46L103.10-3.46L103.10-3.46Q102.46-1.28 100.13 0L100.13 0L100.13 0Q97.79 1.28 95.17 1.28L95.17 1.28L95.17 1.28Q92.54 1.28 90.78 0.29L90.78 0.29L90.78 0.29Q89.02-0.70 88.51-2.37L88.51-2.37L88.51-2.37Q87.49-0.77 85.31 0.26L85.31 0.26L85.31 0.26Q83.14 1.28 80.22 1.28L80.22 1.28L80.22 1.28Q77.31 1.28 74.94 0.51L74.94 0.51L74.94 0.51Q72.58-0.26 71.07-1.92ZM84.58-27.90L84.58-27.90L84.58-27.90Q83.84-26.75 83.20-24.80L83.20-24.80L83.20-24.80Q82.56-22.85 81.50-17.63L81.50-17.63L81.50-17.63Q80.45-12.42 80.45-8.70L80.45-8.70L80.45-8.70Q80.45-4.99 81.02-3.90L81.02-3.90L81.02-3.90Q81.60-2.82 82.62-2.82L82.62-2.82L82.62-2.82Q84.67-2.82 86.18-4.77L86.18-4.77L86.18-4.77Q87.68-6.72 88.26-10.18L88.26-10.18L91.65-28.93L91.65-28.93Q90.30-30.08 88.74-30.08L88.74-30.08L88.74-30.08Q87.17-30.08 86.24-29.57L86.24-29.57L86.24-29.57Q85.31-29.06 84.58-27.90ZM135.55 1.28L135.55 1.28L135.55 1.28Q127.81 1.28 127.81-4.74L127.81-4.74L127.81-4.74Q127.87-6.40 128.38-9.22L128.38-9.22L129.54-15.10L129.54-15.10Q131.26-23.42 131.26-25.28L131.26-25.28L131.26-25.28Q131.26-28.99 129.09-28.99L129.09-28.99L129.09-28.99Q125.44-28.99 123.52-19.46L123.52-19.46L119.74 0L106.88 1.28L113.54-32.70L124.03-33.92L123.01-27.65L123.01-27.65Q126.02-33.92 135.23-33.92L135.23-33.92L135.23-33.92Q139.71-33.92 141.60-32.03L141.60-32.03L141.60-32.03Q143.49-30.14 143.49-25.92L143.49-25.92L143.49-25.92Q143.49-21.95 141.44-12.67L141.44-12.67L141.44-12.67Q140.48-8.51 140.48-6.94L140.48-6.94L140.48-6.94Q140.48-5.38 141.34-4.48L141.34-4.48L141.34-4.48Q142.21-3.58 143.49-3.46L143.49-3.46L143.49-3.46Q142.85-1.28 140.64 0L140.64 0L140.64 0Q138.43 1.28 135.55 1.28ZM165.12-30.34L165.12-30.34L165.12-30.34Q168.58-33.92 175.87-33.92L175.87-33.92L175.87-33.92Q179.90-33.92 182.11-31.78L182.11-31.78L182.11-31.78Q184.32-29.63 184.32-25.70L184.32-25.70L184.32-25.70Q184.32-21.76 182.11-18.98L182.11-18.98L182.11-18.98Q179.90-16.19 175.81-15.04L175.81-15.04L175.81-15.04Q176.13-13.76 176.58-12.42L176.58-12.42L177.47-9.86L177.47-9.86Q178.69-6.59 179.65-5.44L179.65-5.44L179.65-5.44Q180.61-4.29 181.89-3.90L181.89-3.90L181.89-3.90Q181.18-1.28 178.62 0.13L178.62 0.13L178.62 0.13Q176.58 1.28 173.76 1.28L173.76 1.28L173.76 1.28Q165.50 1.28 164.42-11.46L164.42-11.46L164.42-11.46Q164.22-13.25 164.22-15.04L164.22-15.04L164.22-15.04Q167.42-15.94 169.66-18.94L169.66-18.94L169.66-18.94Q171.90-21.95 171.90-25.47L171.90-25.47L171.90-25.47Q171.90-28.99 169.41-28.99L169.41-28.99L169.41-28.99Q167.62-28.99 166.21-27.01L166.21-27.01L166.21-27.01Q164.80-25.02 164.16-21.63L164.16-21.63L159.94 0L147.01 1.28L155.97-44.80L168.83-46.08L167.36-38.46L167.36-38.46Q166.40-33.09 165.12-30.34ZM202.56-3.52L202.56-3.52L202.56-3.52Q200.58 1.28 194.24 1.28L194.24 1.28L194.24 1.28Q191.04 1.28 188.99-0.96L188.99-0.96L188.99-0.96Q187.33-2.82 187.33-4.93L187.33-4.93L187.33-4.93Q187.33-9.73 189.57-20.22L189.57-20.22L194.24-44.80L207.23-46.08L201.02-13.70L201.02-13.70Q199.94-8.96 199.94-7.30L199.94-7.30L199.94-7.30Q199.94-3.65 202.56-3.52ZM228.35-7.23L228.35-7.23L228.35-7.23Q225.02-3.78 218.94-3.78L218.94-3.78L218.94-3.78Q211.33-3.78 209.73-9.34L209.73-9.34L209.73-9.34Q209.22-11.01 209.22-12.86L209.22-12.86L209.22-12.86Q209.22-14.72 209.60-16.64L209.60-16.64L212.61-32.64L225.60-33.92L222.08-15.30L222.08-15.30Q221.95-14.46 221.76-13.57L221.76-13.57L221.76-13.57Q221.57-12.67 221.57-11.74L221.57-11.74L221.57-11.74Q221.57-10.82 221.89-10.21L221.89-10.21L221.89-10.21Q222.21-9.60 222.66-9.22L222.66-9.22L222.66-9.22Q223.42-8.70 224.80-8.70L224.80-8.70L224.80-8.70Q226.18-8.70 227.36-10.37L227.36-10.37L227.36-10.37Q228.54-12.03 229.12-14.91L229.12-14.91L232.64-32.64L245.25-33.92L240.45-8.77L240.45-8.77Q238.08 3.52 233.22 8.38L233.22 8.38L233.22 8.38Q230.72 10.88 227.49 11.87L227.49 11.87L227.49 11.87Q224.26 12.86 220.10 12.86L220.10 12.86L220.10 12.86Q213.38 12.86 209.54 10.75L209.54 10.75L209.54 10.75Q205.70 8.64 205.70 5.12L205.70 5.12L205.70 5.12Q205.70 2.50 207.68 0.99L207.68 0.99L207.68 0.99Q209.66-0.51 212.74-0.51L212.74-0.51L212.74-0.51Q215.42-0.51 217.47 0.64L217.47 0.64L217.47 0.64Q218.69 1.34 219.26 2.24L219.26 2.24L219.26 2.24Q217.79 3.52 217.79 5.63L217.79 5.63L217.79 5.63Q217.79 8.45 220.35 8.45L220.35 8.45L220.35 8.45Q224.58 8.45 227.01-1.28L227.01-1.28L227.01-1.28Q227.71-4.16 228.35-7.23ZM274.62 1.28L274.62 1.28L274.62 1.28Q266.88 1.28 266.88-4.74L266.88-4.74L266.88-4.74Q266.94-6.40 267.46-9.22L267.46-9.22L268.61-15.10L268.61-15.10Q270.34-23.42 270.34-25.28L270.34-25.28L270.34-25.28Q270.34-28.99 268.16-28.99L268.16-28.99L268.16-28.99Q264.51-28.99 262.59-19.46L262.59-19.46L258.82 0L245.95 1.28L252.61-32.70L263.10-33.92L262.08-27.65L262.08-27.65Q265.09-33.92 274.30-33.92L274.30-33.92L274.30-33.92Q278.78-33.92 280.67-32.03L280.67-32.03L280.67-32.03Q282.56-30.14 282.56-25.92L282.56-25.92L282.56-25.92Q282.56-21.95 280.51-12.67L280.51-12.67L280.51-12.67Q279.55-8.51 279.55-6.94L279.55-6.94L279.55-6.94Q279.55-5.38 280.42-4.48L280.42-4.48L280.42-4.48Q281.28-3.58 282.56-3.46L282.56-3.46L282.56-3.46Q281.92-1.28 279.71 0L279.71 0L279.71 0Q277.50 1.28 274.62 1.28ZM296.96-29.50L290.18-29.50L290.18-29.50Q292.54-37.70 292.67-46.34L292.67-46.34L294.53-46.59L294.53-46.59Q295.49-46.72 296.19-46.72L296.19-46.72L296.19-46.72Q299.01-46.72 300.54-45.34L300.54-45.34L300.54-45.34Q302.08-43.97 302.08-41.54L302.08-41.54L302.08-41.54Q302.08-38.98 300.93-36.16L300.93-36.16L300.93-36.16Q298.88-31.17 296.96-29.50L296.96-29.50ZM320.45-22.46L320.45-22.46L320.45-22.46Q321.34-24.83 321.34-26.88L321.34-26.88L321.34-26.88Q321.34-30.66 318.27-30.66L318.27-30.66L318.27-30.66Q316.67-30.66 315.36-29.22L315.36-29.22L315.36-29.22Q314.05-27.78 314.05-25.98L314.05-25.98L314.05-25.98Q314.05-24.70 315.07-23.68L315.07-23.68L315.07-23.68Q316.54-22.27 320.32-19.97L320.32-19.97L320.32-19.97Q324.10-17.66 325.54-15.78L325.54-15.78L325.54-15.78Q326.98-13.89 326.98-11.30L326.98-11.30L326.98-11.30Q326.98-8.70 325.73-6.34L325.73-6.34L325.73-6.34Q324.48-3.97 322.24-2.30L322.24-2.30L322.24-2.30Q317.44 1.28 309.76 1.28L309.76 1.28L309.76 1.28Q305.60 1.28 302.40-0.90L302.40-0.90L302.40-0.90Q299.20-3.01 299.20-5.50L299.20-5.50L299.20-5.50Q299.20-8 301.02-9.47L301.02-9.47L301.02-9.47Q302.85-10.94 305.54-10.94L305.54-10.94L305.54-10.94Q308.22-10.94 309.89-9.92L309.89-9.92L309.89-9.92Q309.06-7.81 309.06-6.40L309.06-6.40L309.06-6.40Q309.06-2.18 312.64-2.18L312.64-2.18L312.64-2.18Q314.18-2.18 315.20-3.14L315.20-3.14L315.20-3.14Q316.22-4.10 316.22-5.76L316.22-5.76L316.22-5.76Q316.22-9.02 310.72-12.48L310.72-12.48L310.72-12.48Q306.24-15.42 305.22-16.58L305.22-16.58L305.22-16.58Q303.49-18.62 303.49-21.18L303.49-21.18L303.49-21.18Q303.49-23.74 304.70-26.18L304.70-26.18L304.70-26.18Q305.92-28.61 308.16-30.34L308.16-30.34L308.16-30.34Q312.83-33.92 320.96-33.92L320.96-33.92L320.96-33.92Q325.12-33.92 327.58-32.26L327.58-32.26L327.58-32.26Q330.05-30.59 330.05-27.78L330.05-27.78L330.05-27.78Q330.05-24.96 328.35-23.36L328.35-23.36L328.35-23.36Q326.66-21.76 323.58-21.76L323.58-21.76L323.58-21.76Q321.47-21.76 320.45-22.46ZM374.72-33.92L374.72-33.92L374.72-33.92Q369.54-33.92 365.76-35.65L365.76-35.65L363.71-25.28L376.06-25.28L376.06-25.28Q376.06-21.89 374.37-19.74L374.37-19.74L374.37-19.74Q372.67-17.60 369.60-17.60L369.60-17.60L369.60-17.60Q366.27-17.60 363.20-18.82L363.20-18.82L363.20-18.82Q362.56-19.07 362.50-19.14L362.50-19.14L358.85 0L344.90 0L353.02-42.24L381.57-42.24L381.57-42.24Q381.57-38.34 379.74-36.13L379.74-36.13L379.74-36.13Q377.92-33.92 374.72-33.92ZM400.13-2.69L400.13-2.69L400.13-2.69Q397.06 1.28 389.44 1.28L389.44 1.28L389.44 1.28Q385.47 1.28 382.59-1.12L382.59-1.12L382.59-1.12Q379.71-3.52 379.71-6.98L379.71-6.98L379.71-6.98Q379.71-8.90 379.90-9.86L379.90-9.86L384.19-32.64L397.18-33.92L392.51-9.22L392.51-9.22Q392.26-7.81 392.26-6.98L392.26-6.98L392.26-6.98Q392.26-3.26 394.50-3.26L394.50-3.26L394.50-3.26Q396.99-3.26 398.78-6.66L398.78-6.66L398.78-6.66Q399.36-7.74 399.62-9.15L399.62-9.15L404.16-32.64L416.77-33.92L412.03-8.96L412.03-8.96Q411.84-8 411.84-6.98L411.84-6.98L411.84-6.98Q411.84-5.95 412.42-4.83L412.42-4.83L412.42-4.83Q412.99-3.71 414.85-3.46L414.85-3.46L414.85-3.46Q414.46-1.92 413.12-0.90L413.12-0.90L413.12-0.90Q410.30 1.28 407.26 1.28L407.26 1.28L407.26 1.28Q404.22 1.28 402.43 0.19L402.43 0.19L402.43 0.19Q400.64-0.90 400.13-2.69ZM440.26-17.98L440.26-17.98L440.26-17.98Q442.56-22.08 442.56-26.24L442.56-26.24L442.56-26.24Q442.56-28.99 440.58-28.99L440.58-28.99L440.58-28.99Q439.04-28.99 437.44-26.37L437.44-26.37L437.44-26.37Q435.78-23.74 435.26-20.35L435.26-20.35L431.94 0L418.69 1.28L425.22-32.64L435.78-33.92L434.62-27.46L434.62-27.46Q437.76-33.92 444.80-33.92L444.80-33.92L444.80-33.92Q448.51-33.92 450.53-32L450.53-32L450.53-32Q452.54-30.08 452.54-26.14L452.54-26.14L452.54-26.14Q452.54-22.21 449.95-19.71L449.95-19.71L449.95-19.71Q447.36-17.22 442.94-17.22L442.94-17.22L442.94-17.22Q441.02-17.22 440.26-17.98ZM480.64 1.28L480.64 1.28L480.64 1.28Q472.90 1.28 472.90-4.74L472.90-4.74L472.90-4.74Q472.96-6.40 473.47-9.22L473.47-9.22L474.62-15.10L474.62-15.10Q476.35-23.42 476.35-25.28L476.35-25.28L476.35-25.28Q476.35-28.99 474.18-28.99L474.18-28.99L474.18-28.99Q470.53-28.99 468.61-19.46L468.61-19.46L464.83 0L451.97 1.28L458.62-32.70L469.12-33.92L468.10-27.65L468.10-27.65Q471.10-33.92 480.32-33.92L480.32-33.92L480.32-33.92Q484.80-33.92 486.69-32.03L486.69-32.03L486.69-32.03Q488.58-30.14 488.58-25.92L488.58-25.92L488.58-25.92Q488.58-21.95 486.53-12.67L486.53-12.67L486.53-12.67Q485.57-8.51 485.57-6.94L485.57-6.94L485.57-6.94Q485.57-5.38 486.43-4.48L486.43-4.48L486.43-4.48Q487.30-3.58 488.58-3.46L488.58-3.46L488.58-3.46Q487.94-1.28 485.73 0L485.73 0L485.73 0Q483.52 1.28 480.64 1.28ZM509.06-3.52L509.06-3.52L509.06-3.52Q507.07 1.28 500.74 1.28L500.74 1.28L500.74 1.28Q497.47 1.28 495.42-0.96L495.42-0.96L495.42-0.96Q493.70-2.94 493.70-4.93L493.70-4.93L493.70-4.93Q493.70-10.11 496.06-20.22L496.06-20.22L498.43-32.64L511.42-33.92L507.52-13.70L507.52-13.70Q506.43-8.96 506.43-7.30L506.43-7.30L506.43-7.30Q506.43-3.65 509.06-3.52ZM499.58-41.54L499.58-41.54L499.58-41.54Q499.58-44.03 501.66-45.38L501.66-45.38L501.66-45.38Q503.74-46.72 506.75-46.72L506.75-46.72L506.75-46.72Q509.76-46.72 511.58-45.38L511.58-45.38L511.58-45.38Q513.41-44.03 513.41-41.54L513.41-41.54L513.41-41.54Q513.41-39.04 511.39-37.76L511.39-37.76L511.39-37.76Q509.38-36.48 506.37-36.48L506.37-36.48L506.37-36.48Q503.36-36.48 501.47-37.76L501.47-37.76L501.47-37.76Q499.58-39.04 499.58-41.54ZM515.52-6.40L515.52-6.40L515.52-6.40Q515.52-8.13 516.42-12.48L516.42-12.48L519.81-29.76L516.03-29.76L516.29-31.68L516.29-31.68Q523.97-33.98 531.39-39.62L531.39-39.62L534.46-39.62L532.93-32.64L537.92-32.64L537.34-29.76L532.42-29.76L529.15-12.48L529.15-12.48Q528.32-8.51 528.32-7.17L528.32-7.17L528.32-7.17Q528.32-4.10 531.01-3.46L531.01-3.46L531.01-3.46Q530.37-1.28 528.06 0L528.06 0L528.06 0Q525.76 1.28 522.50 1.28L522.50 1.28L522.50 1.28Q519.23 1.28 517.38-0.77L517.38-0.77L517.38-0.77Q515.52-2.82 515.52-6.40ZM558.14-2.69L558.14-2.69L558.14-2.69Q555.07 1.28 547.46 1.28L547.46 1.28L547.46 1.28Q543.49 1.28 540.61-1.12L540.61-1.12L540.61-1.12Q537.73-3.52 537.73-6.98L537.73-6.98L537.73-6.98Q537.73-8.90 537.92-9.86L537.92-9.86L542.21-32.64L555.20-33.92L550.53-9.22L550.53-9.22Q550.27-7.81 550.27-6.98L550.27-6.98L550.27-6.98Q550.27-3.26 552.51-3.26L552.51-3.26L552.51-3.26Q555.01-3.26 556.80-6.66L556.80-6.66L556.80-6.66Q557.38-7.74 557.63-9.15L557.63-9.15L562.18-32.64L574.78-33.92L570.05-8.96L570.05-8.96Q569.86-8 569.86-6.98L569.86-6.98L569.86-6.98Q569.86-5.95 570.43-4.83L570.43-4.83L570.43-4.83Q571.01-3.71 572.86-3.46L572.86-3.46L572.86-3.46Q572.48-1.92 571.14-0.90L571.14-0.90L571.14-0.90Q568.32 1.28 565.28 1.28L565.28 1.28L565.28 1.28Q562.24 1.28 560.45 0.19L560.45 0.19L560.45 0.19Q558.66-0.90 558.14-2.69ZM598.27-17.98L598.27-17.98L598.27-17.98Q600.58-22.08 600.58-26.24L600.58-26.24L600.58-26.24Q600.58-28.99 598.59-28.99L598.59-28.99L598.59-28.99Q597.06-28.99 595.46-26.37L595.46-26.37L595.46-26.37Q593.79-23.74 593.28-20.35L593.28-20.35L589.95 0L576.70 1.28L583.23-32.64L593.79-33.92L592.64-27.46L592.64-27.46Q595.78-33.92 602.82-33.92L602.82-33.92L602.82-33.92Q606.53-33.92 608.54-32L608.54-32L608.54-32Q610.56-30.08 610.56-26.14L610.56-26.14L610.56-26.14Q610.56-22.21 607.97-19.71L607.97-19.71L607.97-19.71Q605.38-17.22 600.96-17.22L600.96-17.22L600.96-17.22Q599.04-17.22 598.27-17.98ZM637.50-10.82L637.50-10.82L637.50-10.82Q639.10-9.73 639.10-7.33L639.10-7.33L639.10-7.33Q639.10-4.93 637.89-3.39L637.89-3.39L637.89-3.39Q636.67-1.86 634.69-0.83L634.69-0.83L634.69-0.83Q630.59 1.28 626.18 1.28L626.18 1.28L626.18 1.28Q621.76 1.28 619.17 0.32L619.17 0.32L619.17 0.32Q616.58-0.64 614.85-2.43L614.85-2.43L614.85-2.43Q611.46-5.82 611.46-12.03L611.46-12.03L611.46-12.03Q611.46-21.70 616.70-27.58L616.70-27.58L616.70-27.58Q622.34-33.92 632.13-33.92L632.13-33.92L632.13-33.92Q638.21-33.92 641.22-31.36L641.22-31.36L641.22-31.36Q643.46-29.44 643.46-26.30L643.46-26.30L643.46-26.30Q643.46-15.04 624-15.04L624-15.04L624-15.04Q623.74-13.38 623.74-11.97L623.74-11.97L623.74-11.97Q623.74-9.02 625.06-7.90L625.06-7.90L625.06-7.90Q626.37-6.78 628.80-6.78L628.80-6.78L628.80-6.78Q631.23-6.78 633.82-7.90L633.82-7.90L633.82-7.90Q636.42-9.02 637.50-10.82ZM624.45-17.79L624.45-17.79L624.45-17.79Q628.99-17.79 631.62-20.61L631.62-20.61L631.62-20.61Q634.24-23.30 634.24-27.58L634.24-27.58L634.24-27.58Q634.24-29.06 633.70-29.86L633.70-29.86L633.70-29.86Q633.15-30.66 632.06-30.66L632.06-30.66L632.06-30.66Q630.98-30.66 630.05-30.24L630.05-30.24L630.05-30.24Q629.12-29.82 628.16-28.42L628.16-28.42L628.16-28.42Q625.79-25.22 624.45-17.79ZM683.78-29.57L683.78-29.57L683.78-29.57Q684.74-31.49 684.74-33.28L684.74-33.28L684.74-33.28Q684.74-35.07 684.54-36.06L684.54-36.06L684.54-36.06Q684.35-37.06 683.90-37.82L683.90-37.82L683.90-37.82Q682.94-39.49 681.02-39.49L681.02-39.49L681.02-39.49Q678.66-39.49 676.74-37.76L676.74-37.76L676.74-37.76Q674.69-35.97 674.69-33.15L674.69-33.15L674.69-33.15Q674.69-31.36 675.94-29.98L675.94-29.98L675.94-29.98Q677.18-28.61 679.10-27.33L679.10-27.33L679.10-27.33Q681.02-26.05 683.20-24.77L683.20-24.77L683.20-24.77Q685.38-23.49 687.30-21.95L687.30-21.95L687.30-21.95Q691.71-18.43 691.71-13.70L691.71-13.70L691.71-13.70Q691.71-10.50 690.02-7.78L690.02-7.78L690.02-7.78Q688.32-5.06 685.50-3.07L685.50-3.07L685.50-3.07Q679.36 1.28 671.23 1.28L671.23 1.28L671.23 1.28Q664.64 1.28 661.25-0.86L661.25-0.86L661.25-0.86Q657.86-3.01 657.86-6.27L657.86-6.27L657.86-6.27Q657.86-12.10 662.40-13.57L662.40-13.57L662.40-13.57Q663.68-14.02 665.63-14.02L665.63-14.02L665.63-14.02Q667.58-14.02 669.82-13.18L669.82-13.18L669.82-13.18Q668.80-10.56 668.80-8.19L668.80-8.19L668.80-8.19Q668.80-3.07 672.45-3.07L672.45-3.07L672.45-3.07Q674.82-3.07 676.77-4.80L676.77-4.80L676.77-4.80Q678.72-6.53 678.72-8.48L678.72-8.48L678.72-8.48Q678.72-10.43 677.47-11.84L677.47-11.84L677.47-11.84Q676.22-13.25 674.37-14.37L674.37-14.37L674.37-14.37Q672.51-15.49 670.37-16.58L670.37-16.58L670.37-16.58Q668.22-17.66 666.37-19.20L666.37-19.20L666.37-19.20Q662.02-22.72 662.02-28.35L662.02-28.35L662.02-28.35Q662.02-32 663.81-34.85L663.81-34.85L663.81-34.85Q665.60-37.70 668.48-39.62L668.48-39.62L668.48-39.62Q674.24-43.52 681.31-43.52L681.31-43.52L681.31-43.52Q688.38-43.52 691.81-41.41L691.81-41.41L691.81-41.41Q695.23-39.30 695.23-35.71L695.23-35.71L695.23-35.71Q695.23-32.58 692.80-30.59L692.80-30.59L692.80-30.59Q690.69-28.93 688.13-28.93L688.13-28.93L688.13-28.93Q685.57-28.93 683.78-29.57ZM697.60-6.40L697.60-6.40L697.60-6.40Q697.60-8.13 698.50-12.48L698.50-12.48L701.89-29.76L698.11-29.76L698.37-31.68L698.37-31.68Q706.05-33.98 713.47-39.62L713.47-39.62L716.54-39.62L715.01-32.64L720-32.64L719.42-29.76L714.50-29.76L711.23-12.48L711.23-12.48Q710.40-8.51 710.40-7.17L710.40-7.17L710.40-7.17Q710.40-4.10 713.09-3.46L713.09-3.46L713.09-3.46Q712.45-1.28 710.14 0L710.14 0L710.14 0Q707.84 1.28 704.58 1.28L704.58 1.28L704.58 1.28Q701.31 1.28 699.46-0.77L699.46-0.77L699.46-0.77Q697.60-2.82 697.60-6.40ZM733.38 1.28L733.38 1.28L733.38 1.28Q719.30 1.28 719.30-11.97L719.30-11.97L719.30-11.97Q719.30-21.38 724.48-27.46L724.48-27.46L724.48-27.46Q729.98-33.92 739.52-33.92L739.52-33.92L739.52-33.92Q746.43-33.92 749.95-30.72L749.95-30.72L749.95-30.72Q753.47-27.52 753.47-20.80L753.47-20.80L753.47-20.80Q753.47-10.56 747.97-4.61L747.97-4.61L747.97-4.61Q742.59 1.28 733.38 1.28ZM735.04-26.56L735.04-26.56L735.04-26.56Q734.27-24.83 733.66-22.24L733.66-22.24L733.66-22.24Q733.06-19.65 732.29-15.55L732.29-15.55L732.29-15.55Q731.52-11.46 731.52-6.40L731.52-6.40L731.52-6.40Q731.52-4.74 732.06-3.65L732.06-3.65L732.06-3.65Q732.61-2.56 734.08-2.56L734.08-2.56L734.08-2.56Q735.55-2.56 736.48-3.26L736.48-3.26L736.48-3.26Q737.41-3.97 738.11-5.63L738.11-5.63L738.11-5.63Q739.39-8.58 740.42-14.05L740.42-14.05L740.42-14.05Q741.44-19.52 741.54-21.89L741.54-21.89L741.54-21.89Q741.63-24.26 741.63-26.02L741.63-26.02L741.63-26.02Q741.63-27.78 741.12-28.93L741.12-28.93L741.12-28.93Q740.61-30.08 739.17-30.08L739.17-30.08L739.17-30.08Q737.73-30.08 736.77-29.18L736.77-29.18L736.77-29.18Q735.81-28.29 735.04-26.56ZM777.28-17.98L777.28-17.98L777.28-17.98Q779.58-22.08 779.58-26.24L779.58-26.24L779.58-26.24Q779.58-28.99 777.60-28.99L777.60-28.99L777.60-28.99Q776.06-28.99 774.46-26.37L774.46-26.37L774.46-26.37Q772.80-23.74 772.29-20.35L772.29-20.35L768.96 0L755.71 1.28L762.24-32.64L772.80-33.92L771.65-27.46L771.65-27.46Q774.78-33.92 781.82-33.92L781.82-33.92L781.82-33.92Q785.54-33.92 787.55-32L787.55-32L787.55-32Q789.57-30.08 789.57-26.14L789.57-26.14L789.57-26.14Q789.57-22.21 786.98-19.71L786.98-19.71L786.98-19.71Q784.38-17.22 779.97-17.22L779.97-17.22L779.97-17.22Q778.05-17.22 777.28-17.98ZM816.51-10.82L816.51-10.82L816.51-10.82Q818.11-9.73 818.11-7.33L818.11-7.33L818.11-7.33Q818.11-4.93 816.90-3.39L816.90-3.39L816.90-3.39Q815.68-1.86 813.70-0.83L813.70-0.83L813.70-0.83Q809.60 1.28 805.18 1.28L805.18 1.28L805.18 1.28Q800.77 1.28 798.18 0.32L798.18 0.32L798.18 0.32Q795.58-0.64 793.86-2.43L793.86-2.43L793.86-2.43Q790.46-5.82 790.46-12.03L790.46-12.03L790.46-12.03Q790.46-21.70 795.71-27.58L795.71-27.58L795.71-27.58Q801.34-33.92 811.14-33.92L811.14-33.92L811.14-33.92Q817.22-33.92 820.22-31.36L820.22-31.36L820.22-31.36Q822.46-29.44 822.46-26.30L822.46-26.30L822.46-26.30Q822.46-15.04 803.01-15.04L803.01-15.04L803.01-15.04Q802.75-13.38 802.75-11.97L802.75-11.97L802.75-11.97Q802.75-9.02 804.06-7.90L804.06-7.90L804.06-7.90Q805.38-6.78 807.81-6.78L807.81-6.78L807.81-6.78Q810.24-6.78 812.83-7.90L812.83-7.90L812.83-7.90Q815.42-9.02 816.51-10.82ZM803.46-17.79L803.46-17.79L803.46-17.79Q808-17.79 810.62-20.61L810.62-20.61L810.62-20.61Q813.25-23.30 813.25-27.58L813.25-27.58L813.25-27.58Q813.25-29.06 812.70-29.86L812.70-29.86L812.70-29.86Q812.16-30.66 811.07-30.66L811.07-30.66L811.07-30.66Q809.98-30.66 809.06-30.24L809.06-30.24L809.06-30.24Q808.13-29.82 807.17-28.42L807.17-28.42L807.17-28.42Q804.80-25.22 803.46-17.79Z" fill="none" stroke="#c24229" stroke-width="2.1"></path></g></g></g><style>text {
  font-size: 64px;
  font-family: Arial Black;
  dominant-baseline: central;
  text-anchor: middle;
}</style></svg>